<svg xmlns="http://www.w3.org/2000/svg" viewBox="0 0 496 496"><defs><style>.cls-1{fill:#e32b54;}</style></defs><title>Asset 1</title><g id="Layer_2" data-name="Layer 2"><g id="Layer_1-2" data-name="Layer 1"><path class="cls-1" d="M248,0C111,0,0,111,0,248S111,496,248,496,496,385,496,248,385,0,248,0Zm0,448A200,200,0,1,1,448,248,199.94,199.94,0,0,1,248,448Z"/><path class="cls-1" d="M287.05,333.9a39.05,39.05,0,1,1-39.05-39A39.1,39.1,0,0,1,287.05,333.9ZM213.47,135.35l6.64,132.76a11.72,11.72,0,0,0,11.7,11.13h32.38a11.72,11.72,0,0,0,11.7-11.13l6.64-132.76a11.72,11.72,0,0,0-11.7-12.3H225.17A11.72,11.72,0,0,0,213.47,135.35Z"/></g></g></svg>