<svg xmlns="http://www.w3.org/2000/svg" width="12.825" height="11.116" viewBox="0 0 12.825 11.116">
  <g id="Group_104" data-name="Group 104" transform="translate(-1721.711 -91.27)">
    <path id="bookmark-regular" d="M7.295,0H1.042A1.042,1.042,0,0,0,0,1.042V11.116L4.168,8.684l4.168,2.432V1.042A1.042,1.042,0,0,0,7.295,0Zm0,9.3L4.168,7.478,1.042,9.3V1.172a.13.13,0,0,1,.13-.13H7.165a.13.13,0,0,1,.13.13Z" transform="translate(1721.711 91.27)" fill="#a3a6b4"/>
    <path id="arrow-right-solid" d="M2.126,37.976l.248-.248a.267.267,0,0,1,.378,0L4.921,39.9a.267.267,0,0,1,0,.378L2.752,42.445a.267.267,0,0,1-.378,0L2.126,42.2a.268.268,0,0,1,0-.383l1.345-1.281H.268A.267.267,0,0,1,0,40.265v-.357a.267.267,0,0,1,.268-.268H3.475L2.13,38.359A.266.266,0,0,1,2.126,37.976Z" transform="translate(1729.536 56.453)" fill="#a3a6b4"/>
  </g>
</svg>
