<svg xmlns="http://www.w3.org/2000/svg" viewBox="0 0 245.72 27.41"><defs><style>.cls-1{fill:#fff;}.cls-2{fill:#00aeef;}</style></defs><title>Asset 1</title><g id="Layer_2" data-name="Layer 2"><g id="Layer_1-2" data-name="Layer 1"><path class="cls-1" d="M0,.66H6.26l4.17,16.73h.07L16,.66H21.3l5.41,17.17h.08L31.17.66H37L29.37,26.75H24.24L18.5,8.7h-.08L12.67,26.75H7.74Z"/><path class="cls-1" d="M38.17,13.71a14.77,14.77,0,0,1,1-5.68A12.52,12.52,0,0,1,42.15,3.7,12.91,12.91,0,0,1,46.61,1,17,17,0,0,1,57.88,1,12.91,12.91,0,0,1,62.34,3.7,12.52,12.52,0,0,1,65.27,8a14.77,14.77,0,0,1,1,5.68,14.72,14.72,0,0,1-1,5.67,12.43,12.43,0,0,1-2.93,4.33,12.76,12.76,0,0,1-4.46,2.74,17,17,0,0,1-11.27,0,12.76,12.76,0,0,1-4.46-2.74,12.43,12.43,0,0,1-2.93-4.33A14.72,14.72,0,0,1,38.17,13.71Zm6,0a9.57,9.57,0,0,0,.57,3.37,7.74,7.74,0,0,0,1.64,2.65,7.53,7.53,0,0,0,2.56,1.75,9.14,9.14,0,0,0,6.67,0,7.43,7.43,0,0,0,2.56-1.75,7.74,7.74,0,0,0,1.64-2.65,9.57,9.57,0,0,0,.57-3.37,9.68,9.68,0,0,0-.57-3.36,7.73,7.73,0,0,0-1.64-2.67,7.43,7.43,0,0,0-2.56-1.75,9.28,9.28,0,0,0-6.67,0,7.53,7.53,0,0,0-2.56,1.75,7.73,7.73,0,0,0-1.64,2.67A9.68,9.68,0,0,0,44.14,13.71Z"/><path class="cls-1" d="M70.23.66H80.32a17.67,17.67,0,0,1,3.78.39,9.06,9.06,0,0,1,3.13,1.29,6.4,6.4,0,0,1,2.14,2.43,8.21,8.21,0,0,1,.79,3.81,7.64,7.64,0,0,1-1.44,4.7,6.46,6.46,0,0,1-4.2,2.45l6.63,11H84.26L78.81,16.32H76V26.75H70.23ZM76,11.46h3.39c.52,0,1.07,0,1.64-.06a4.82,4.82,0,0,0,1.57-.33,2.68,2.68,0,0,0,1.16-.86,2.64,2.64,0,0,0,.46-1.66A2.77,2.77,0,0,0,83.79,7a2.81,2.81,0,0,0-1-.9,4.36,4.36,0,0,0-1.43-.42,10.81,10.81,0,0,0-1.59-.11H76Z"/><path class="cls-1" d="M94.32.66h5.75V11.5L110.2.66h7.52L106.11,12.79l12.6,14h-8L100.07,14.37V26.75H94.32Z"/><path class="cls-2" d="M120.7.66h9.73a24.54,24.54,0,0,1,3.41.24,9.34,9.34,0,0,1,3.08,1,6,6,0,0,1,2.21,2A6.2,6.2,0,0,1,140,7.3,5.47,5.47,0,0,1,138.74,11,6.72,6.72,0,0,1,135.48,13v.08a7.27,7.27,0,0,1,2.34.72,6.11,6.11,0,0,1,1.8,1.36,5.72,5.72,0,0,1,1.16,1.93,6.85,6.85,0,0,1,.41,2.36,6.27,6.27,0,0,1-.88,3.45A7.07,7.07,0,0,1,138,25.17a9.93,9.93,0,0,1-3.15,1.21,16.61,16.61,0,0,1-3.48.37H120.7Zm5.75,10.43h4.17a5.7,5.7,0,0,0,1.3-.15,3.24,3.24,0,0,0,1.16-.48,2.42,2.42,0,0,0,.83-.88,2.64,2.64,0,0,0,.32-1.33,2.4,2.4,0,0,0-.35-1.34,2.5,2.5,0,0,0-.91-.83,4,4,0,0,0-1.25-.42,7.19,7.19,0,0,0-1.36-.13h-3.91Zm0,10.8h5.16a6.34,6.34,0,0,0,1.35-.15,3.54,3.54,0,0,0,1.23-.52,2.77,2.77,0,0,0,.9-1,2.68,2.68,0,0,0,.35-1.43,2.27,2.27,0,0,0-.46-1.49,3,3,0,0,0-1.16-.87,6.11,6.11,0,0,0-1.51-.41A11.8,11.8,0,0,0,130.8,16h-4.35Z"/><path class="cls-2" d="M144.8.66h17.72V6h-12v4.86h11.31v5.31H150.55v5.3h12.64v5.31H144.8Z"/><path class="cls-2" d="M167.79.66h7.81l11.09,18.13h.08V.66h5.74V26.75H185L173.61,8.18h-.07V26.75h-5.75Z"/><path class="cls-2" d="M214.88,7.44a5.79,5.79,0,0,0-2.08-1.58,7,7,0,0,0-2.86-.55,7.13,7.13,0,0,0-3,.62,7.28,7.28,0,0,0-2.4,1.75A8.25,8.25,0,0,0,203,10.35a9.68,9.68,0,0,0-.57,3.36,9.57,9.57,0,0,0,.57,3.37,8.24,8.24,0,0,0,1.57,2.65,7.05,7.05,0,0,0,2.34,1.75,6.71,6.71,0,0,0,2.89.63,6.49,6.49,0,0,0,3.13-.74,6.25,6.25,0,0,0,2.25-2.06l4.79,3.57a10,10,0,0,1-4.2,3.43,13.14,13.14,0,0,1-5.24,1.1,16,16,0,0,1-5.63-1,12.76,12.76,0,0,1-4.46-2.74,12.43,12.43,0,0,1-2.93-4.33,14.72,14.72,0,0,1-1.05-5.67A14.77,14.77,0,0,1,197.47,8,12.52,12.52,0,0,1,200.4,3.7,12.91,12.91,0,0,1,204.86,1a16,16,0,0,1,5.63-1,14.43,14.43,0,0,1,2.31.2,12.76,12.76,0,0,1,2.36.65A10.33,10.33,0,0,1,217.38,2a8.6,8.6,0,0,1,1.92,1.8Z"/><path class="cls-2" d="M223.06.66h5.75v9.73H240V.66h5.75V26.75H240V15.48H228.81V26.75h-5.75Z"/></g></g></svg>