<svg xmlns="http://www.w3.org/2000/svg" xmlns:xlink="http://www.w3.org/1999/xlink" width="1430" height="607.258" viewBox="0 0 1430 607.258">
  <defs>
    <radialGradient id="radial-gradient" cx="0.5" cy="0.5" r="0.499" gradientTransform="matrix(0.051, -0.999, -0.999, -0.051, 0.974, 1.025)" gradientUnits="objectBoundingBox">
      <stop offset="0" stop-color="#fce06b" stop-opacity="0.565"/>
      <stop offset="0.578" stop-color="#fce06b" stop-opacity="0.439"/>
      <stop offset="1" stop-color="#fce06b" stop-opacity="0.082"/>
    </radialGradient>
  </defs>
  <g id="Group_9" data-name="Group 9" transform="translate(59.77 0)">
    <rect id="Rectangle_166" data-name="Rectangle 166" width="17.6" height="252.56" transform="matrix(0.966, -0.259, 0.259, 0.966, 7.471, 286.825)" fill="#3a3d4b"/>
    <rect id="Rectangle_167" data-name="Rectangle 167" width="17.6" height="258.72" transform="translate(152.146 65.138) rotate(34)" fill="#3a3d4b"/>
    <path id="Subtraction_1" data-name="Subtraction 1" d="M144.2,67.941H0A80.218,80.218,0,0,1,23.981,19.589,71.74,71.74,0,0,1,45.931,5.223a68.174,68.174,0,0,1,52.339,0,71.735,71.735,0,0,1,21.949,14.366A80.2,80.2,0,0,1,144.2,67.939Z" transform="translate(9.239 519.56)" fill="#9b6d81"/>
    <rect id="Rectangle_168" data-name="Rectangle 168" width="77.44" height="97.68" transform="matrix(0.719, -0.695, 0.695, 0.719, 110.063, 68.275)" fill="#9b6d81"/>
    <ellipse id="Ellipse_17" data-name="Ellipse 17" cx="38.83" cy="19.36" rx="38.83" ry="19.36" transform="translate(95.466 52.964) rotate(-43)" fill="#9b6d81"/>
    <path id="Path_25" data-name="Path 25" d="M97.644,29.726C89.873,11.973,72.43,0,51.376,0A51.358,51.358,0,0,0,28.293,97.246s15.612-11.663,36.634-32.08S97.644,29.726,97.644,29.726Z" transform="translate(290.051 199.395) rotate(-177)" fill="url(#radial-gradient)"/>
    <path id="Path_24" data-name="Path 24" d="M56.087,17.083A28.631,28.631,0,0,0,29.48,0,29.5,29.5,0,0,0,16.517,55.986s10.5-9.064,20.457-18.85S56.087,17.083,56.087,17.083Z" transform="translate(262.77 170.342) rotate(-177)" fill="#f5e392"/>
    <path id="Subtraction_2" data-name="Subtraction 2" d="M144.2,67.941H0A80.218,80.218,0,0,1,23.98,19.589,71.739,71.739,0,0,1,45.93,5.223a68.174,68.174,0,0,1,52.339,0A71.735,71.735,0,0,1,120.218,19.59,80.2,80.2,0,0,1,144.2,67.94Z" transform="translate(135.959 138.385) rotate(-42)" fill="#935f76"/>
    <ellipse id="Ellipse_16" data-name="Ellipse 16" cx="18.48" cy="18.48" rx="18.48" ry="18.48" transform="translate(-0.001 266.507)" fill="#9b6d81"/>
    <path id="Subtraction_6" data-name="Subtraction 6" d="M0,78.327v-67.9H69.882A80.217,80.217,0,0,1,45.9,58.775,71.731,71.731,0,0,1,23.952,73.14,67.885,67.885,0,0,1,0,78.327Z" transform="translate(79.122 597.926) rotate(180)" fill="#935f76"/>
  </g>
  <g id="Group_5" data-name="Group 5" transform="translate(-207 -366.499)">
    <path id="Rectangle_52" data-name="Rectangle 52" d="M16,0H702a16,16,0,0,1,16,16V407a0,0,0,0,1,0,0H0a0,0,0,0,1,0,0V16A16,16,0,0,1,16,0Z" transform="translate(618 451)" fill="#3a3d4b"/>
    <path id="Union_2" data-name="Union 2" d="M18215-106a5,5,0,0,1-5-5v-7a5,5,0,0,1,5-5h233a5,5,0,0,1,5,5v7a5,5,0,0,1-5,5Zm42-17v-57h-268a16,16,0,0,1-16-16v-6h718v6a16,16,0,0,1-16,16h-268v57Z" transform="translate(-17355 1060)" fill="#b0b3c4"/>
    <rect id="Rectangle_53" data-name="Rectangle 53" width="694" height="383" rx="12" transform="translate(630 463)" fill="#eff0f5"/>
    <g id="Group_6" data-name="Group 6" transform="translate(-27 -14)">
      <rect id="Rectangle_54" data-name="Rectangle 54" width="497" height="359" rx="5" transform="translate(669 489)" fill="#383838"/>
      <rect id="Rectangle_55" data-name="Rectangle 55" width="80" height="317" rx="2" transform="translate(679 521)" fill="#4e4d4d"/>
      <rect id="Rectangle_56" data-name="Rectangle 56" width="387" height="12" rx="2" transform="translate(769 521)" fill="#4e4d4d"/>
      <rect id="Rectangle_99" data-name="Rectangle 99" width="477" height="12" rx="2" transform="translate(679 499)" fill="#4e4d4d"/>
      <g id="Group_8" data-name="Group 8" transform="translate(-3 -22)">
        <rect id="Rectangle_57" data-name="Rectangle 57" width="42" height="7" rx="2" transform="translate(772 565)" fill="#5c71a8"/>
        <rect id="Rectangle_94" data-name="Rectangle 94" width="42" height="7" rx="2" transform="translate(772 667)" fill="#5c71a8"/>
        <rect id="Rectangle_78" data-name="Rectangle 78" width="42" height="7" rx="2" transform="translate(772 650)" fill="#5c71a8"/>
        <rect id="Rectangle_85" data-name="Rectangle 85" width="42" height="7" rx="2" transform="translate(772 752)" fill="#5c71a8"/>
        <rect id="Rectangle_65" data-name="Rectangle 65" width="42" height="7" rx="2" transform="translate(972 565)" fill="#5c71a8"/>
        <rect id="Rectangle_95" data-name="Rectangle 95" width="42" height="7" rx="2" transform="translate(972 667)" fill="#5c71a8"/>
        <rect id="Rectangle_64" data-name="Rectangle 64" width="42" height="7" rx="2" transform="translate(792 582)" fill="#5c71a8"/>
        <rect id="Rectangle_89" data-name="Rectangle 89" width="42" height="7" rx="2" transform="translate(792 684)" fill="#5c71a8"/>
        <rect id="Rectangle_77" data-name="Rectangle 77" width="42" height="7" rx="2" transform="translate(792 633)" fill="#5c71a8"/>
        <rect id="Rectangle_79" data-name="Rectangle 79" width="42" height="7" rx="2" transform="translate(792 735)" fill="#5c71a8"/>
        <rect id="Rectangle_67" data-name="Rectangle 67" width="168" height="7" rx="2" transform="translate(792 599)" fill="#5c71a8"/>
        <rect id="Rectangle_86" data-name="Rectangle 86" width="168" height="7" rx="2" transform="translate(792 701)" fill="#5c71a8"/>
        <rect id="Rectangle_72" data-name="Rectangle 72" width="42" height="7" rx="2" transform="translate(812 616)" fill="#5c71a8"/>
        <rect id="Rectangle_80" data-name="Rectangle 80" width="42" height="7" rx="2" transform="translate(812 718)" fill="#5c71a8"/>
        <rect id="Rectangle_66" data-name="Rectangle 66" width="42" height="7" rx="2" transform="translate(1047 582)" fill="#5c71a8"/>
        <rect id="Rectangle_90" data-name="Rectangle 90" width="42" height="7" rx="2" transform="translate(1047 684)" fill="#5c71a8"/>
        <rect id="Rectangle_71" data-name="Rectangle 71" width="42" height="7" rx="2" transform="translate(1073 599)" fill="#5c71a8"/>
        <rect id="Rectangle_87" data-name="Rectangle 87" width="42" height="7" rx="2" transform="translate(1073 701)" fill="#5c71a8"/>
        <rect id="Rectangle_76" data-name="Rectangle 76" width="42" height="7" rx="2" transform="translate(1093 616)" fill="#5c71a8"/>
        <rect id="Rectangle_81" data-name="Rectangle 81" width="42" height="7" rx="2" transform="translate(1093 718)" fill="#5c71a8"/>
        <rect id="Rectangle_58" data-name="Rectangle 58" width="42" height="7" rx="2" transform="translate(822 565)" fill="#8093c4"/>
        <rect id="Rectangle_96" data-name="Rectangle 96" width="42" height="7" rx="2" transform="translate(822 667)" fill="#8093c4"/>
        <rect id="Rectangle_63" data-name="Rectangle 63" width="42" height="7" rx="2" transform="translate(842 582)" fill="#8093c4"/>
        <rect id="Rectangle_91" data-name="Rectangle 91" width="42" height="7" rx="2" transform="translate(842 684)" fill="#8093c4"/>
        <rect id="Rectangle_73" data-name="Rectangle 73" width="42" height="7" rx="2" transform="translate(862 616)" fill="#8093c4"/>
        <rect id="Rectangle_82" data-name="Rectangle 82" width="42" height="7" rx="2" transform="translate(862 718)" fill="#8093c4"/>
        <rect id="Rectangle_59" data-name="Rectangle 59" width="42" height="7" rx="2" transform="translate(872 565)" fill="#c49d80"/>
        <rect id="Rectangle_97" data-name="Rectangle 97" width="42" height="7" rx="2" transform="translate(872 667)" fill="#c49d80"/>
        <rect id="Rectangle_62" data-name="Rectangle 62" width="42" height="7" rx="2" transform="translate(892 582)" fill="#c49d80"/>
        <rect id="Rectangle_92" data-name="Rectangle 92" width="42" height="7" rx="2" transform="translate(892 684)" fill="#c49d80"/>
        <rect id="Rectangle_74" data-name="Rectangle 74" width="68" height="7" rx="2" transform="translate(912 616)" fill="#c49d80"/>
        <rect id="Rectangle_83" data-name="Rectangle 83" width="68" height="7" rx="2" transform="translate(912 718)" fill="#c49d80"/>
        <rect id="Rectangle_60" data-name="Rectangle 60" width="42" height="7" rx="2" transform="translate(922 565)" fill="#d3cdc9"/>
        <rect id="Rectangle_98" data-name="Rectangle 98" width="42" height="7" rx="2" transform="translate(922 667)" fill="#d3cdc9"/>
        <rect id="Rectangle_61" data-name="Rectangle 61" width="97" height="7" rx="2" transform="translate(942 582)" fill="#d3cdc9"/>
        <rect id="Rectangle_93" data-name="Rectangle 93" width="97" height="7" rx="2" transform="translate(942 684)" fill="#d3cdc9"/>
        <rect id="Rectangle_70" data-name="Rectangle 70" width="97" height="7" rx="2" transform="translate(968 599)" fill="#7b7a79"/>
        <rect id="Rectangle_88" data-name="Rectangle 88" width="97" height="7" rx="2" transform="translate(968 701)" fill="#7b7a79"/>
        <rect id="Rectangle_75" data-name="Rectangle 75" width="97" height="7" rx="2" transform="translate(988 616)" fill="#d3cdc9"/>
        <rect id="Rectangle_84" data-name="Rectangle 84" width="97" height="7" rx="2" transform="translate(988 718)" fill="#d3cdc9"/>
      </g>
      <circle id="Ellipse_1" data-name="Ellipse 1" cx="3" cy="3" r="3" transform="translate(683 502)" fill="#fa916a"/>
      <circle id="Ellipse_2" data-name="Ellipse 2" cx="3" cy="3" r="3" transform="translate(693 502)" fill="#fac36a"/>
      <circle id="Ellipse_3" data-name="Ellipse 3" cx="3" cy="3" r="3" transform="translate(703 502)" fill="#b5fca0"/>
    </g>
    <g id="Group_7" data-name="Group 7" transform="translate(1 -11)">
      <rect id="Rectangle_151" data-name="Rectangle 151" width="161" height="359" rx="5" transform="translate(1150 486)" fill="#383838"/>
      <rect id="Rectangle_152" data-name="Rectangle 152" width="36" height="12" rx="2" transform="translate(1194 496)" fill="#4e4d4d"/>
      <circle id="Ellipse_11" data-name="Ellipse 11" cx="3" cy="3" r="3" transform="translate(1160 499)" fill="#fa916a"/>
      <circle id="Ellipse_12" data-name="Ellipse 12" cx="3" cy="3" r="3" transform="translate(1170 499)" fill="#fac36a"/>
      <circle id="Ellipse_13" data-name="Ellipse 13" cx="3" cy="3" r="3" transform="translate(1180 499)" fill="#b5fca0"/>
      <rect id="Rectangle_154" data-name="Rectangle 154" width="141" height="297" rx="2" transform="translate(1160 538)" fill="#7b7d89"/>
      <rect id="Rectangle_155" data-name="Rectangle 155" width="121" height="75" rx="2" transform="translate(1170 548)" fill="#b0b0be"/>
      <rect id="Rectangle_161" data-name="Rectangle 161" width="121" height="52" rx="2" transform="translate(1170 730)" fill="#b0b0be"/>
      <rect id="Rectangle_156" data-name="Rectangle 156" width="57" height="37" rx="2" transform="translate(1170 633)" fill="#b0b0be"/>
      <rect id="Rectangle_163" data-name="Rectangle 163" width="57" height="33" rx="2" transform="translate(1170 792)" fill="#b0b0be"/>
      <rect id="Rectangle_157" data-name="Rectangle 157" width="57" height="37" rx="2" transform="translate(1234 633)" fill="#b0b0be"/>
      <rect id="Rectangle_162" data-name="Rectangle 162" width="57" height="33" rx="2" transform="translate(1234 792)" fill="#b0b0be"/>
      <rect id="Rectangle_158" data-name="Rectangle 158" width="79" height="11" rx="2" transform="translate(1170 679)" fill="#b0b0be"/>
      <rect id="Rectangle_159" data-name="Rectangle 159" width="121" height="11" rx="2" transform="translate(1170 694)" fill="#b0b0be"/>
      <rect id="Rectangle_160" data-name="Rectangle 160" width="121" height="11" rx="2" transform="translate(1170 709)" fill="#b0b0be"/>
      <rect id="Rectangle_164" data-name="Rectangle 164" width="141" height="12" rx="6" transform="translate(1160 516)" fill="#4e4d4d"/>
    </g>
    <rect id="Rectangle_182" data-name="Rectangle 182" width="150" height="26" transform="translate(902 880)" fill="#9da0b4"/>
  </g>
  <rect id="Rectangle_184" data-name="Rectangle 184" width="74" height="74" transform="translate(1007.79 505.655) rotate(-6)" fill="#f5efbd"/>
  <text id="To_do:" data-name="To do:" transform="translate(1017.678 532.77) rotate(-6)" fill="#454545" font-size="18" font-family="BrushScriptMT, Brush Script MT"><tspan x="0" y="0">To do:</tspan></text>
  <g id="Group_11" data-name="Group 11" transform="translate(-79.877 -471.744)">
    <path id="Path_27" data-name="Path 27" d="M0,0H107s2.889,84.706-22,134H22C-3.123,84,0,0,0,0Z" transform="translate(1313 925)" fill="#93babe"/>
    <path id="Path_29" data-name="Path 29" d="M-21714.363-5176.628s11.379-4.666,18.8,0,11.1,10.764,11.354,18.665-1.006,13.717-7.516,22.817-23.988,30.948-25.76,35.014-1.656,5.474-3.432,8.263-7.678.179-7.543-.642,6.2-15.392,6.2-15.392c6.141-5.127,15.49-19.966,22.086-31.129s6.076-15.739,5.877-18.93-2.434-7.378-4.957-8.9-4.752-1.831-7.479,0-2.545,6.98-3.8,8.9-4.768,1.459-4.846.568S-21714.363-5176.628-21714.363-5176.628Z" transform="translate(23134 6125)" fill="#81a9ad"/>
    <path id="Subtraction_7" data-name="Subtraction 7" d="M23186,6279V6145h49l0,.02c.018.6.172,6.071.047,14.523-.166,11.279-.76,23.026-1.717,33.97a352.161,352.161,0,0,1-6.4,43.752c-3.57,16.448-8.26,30.489-13.937,41.735h-27Z" transform="translate(-21815 -5220)" fill="#81a9ad"/>
  </g>
  <rect id="Rectangle_186" data-name="Rectangle 186" width="1430" height="20" rx="3" transform="translate(0 587.258)" fill="#3a3d4b"/>
</svg>
