<svg xmlns="http://www.w3.org/2000/svg" width="718.002" height="503.001" viewBox="0 0 718.002 503.001">
  <g id="Group_5" data-name="Group 5" transform="translate(-617.998 -451)">
    <path id="Rectangle_52" data-name="Rectangle 52" d="M16,0H702a16,16,0,0,1,16,16V407a0,0,0,0,1,0,0H0a0,0,0,0,1,0,0V16A16,16,0,0,1,16,0Z" transform="translate(618 451)" fill="#2f3148"/>
    <path id="Union_2" data-name="Union 2" d="M18215-106a5,5,0,0,1-5-5v-7a5,5,0,0,1,5-5h233a5,5,0,0,1,5,5v7a5,5,0,0,1-5,5Zm42-17v-57h-268a16,16,0,0,1-16-16v-6h718v6a16,16,0,0,1-16,16h-268v57Z" transform="translate(-17355 1060)" fill="#b0b3c4"/>
    <rect id="Rectangle_53" data-name="Rectangle 53" width="694" height="383" rx="12" transform="translate(630 463)" fill="#eff0f5"/>
    <g id="Group_6" data-name="Group 6" transform="translate(-27 -14)">
      <rect id="Rectangle_54" data-name="Rectangle 54" width="497" height="359" rx="5" transform="translate(669 489)" fill="#383838"/>
      <rect id="Rectangle_55" data-name="Rectangle 55" width="80" height="317" rx="2" transform="translate(679 521)" fill="#4e4d4d"/>
      <rect id="Rectangle_56" data-name="Rectangle 56" width="387" height="12" rx="2" transform="translate(769 521)" fill="#4e4d4d"/>
      <rect id="Rectangle_99" data-name="Rectangle 99" width="477" height="12" rx="2" transform="translate(679 499)" fill="#4e4d4d"/>
      <g id="Group_8" data-name="Group 8" transform="translate(-3 -22)">
        <rect id="Rectangle_57" data-name="Rectangle 57" width="42" height="7" rx="2" transform="translate(772 565)" fill="#5c71a8"/>
        <rect id="Rectangle_94" data-name="Rectangle 94" width="42" height="7" rx="2" transform="translate(772 667)" fill="#5c71a8"/>
        <rect id="Rectangle_78" data-name="Rectangle 78" width="42" height="7" rx="2" transform="translate(772 650)" fill="#5c71a8"/>
        <rect id="Rectangle_85" data-name="Rectangle 85" width="42" height="7" rx="2" transform="translate(772 752)" fill="#5c71a8"/>
        <rect id="Rectangle_65" data-name="Rectangle 65" width="42" height="7" rx="2" transform="translate(972 565)" fill="#5c71a8"/>
        <rect id="Rectangle_95" data-name="Rectangle 95" width="42" height="7" rx="2" transform="translate(972 667)" fill="#5c71a8"/>
        <rect id="Rectangle_64" data-name="Rectangle 64" width="42" height="7" rx="2" transform="translate(792 582)" fill="#5c71a8"/>
        <rect id="Rectangle_89" data-name="Rectangle 89" width="42" height="7" rx="2" transform="translate(792 684)" fill="#5c71a8"/>
        <rect id="Rectangle_77" data-name="Rectangle 77" width="42" height="7" rx="2" transform="translate(792 633)" fill="#5c71a8"/>
        <rect id="Rectangle_79" data-name="Rectangle 79" width="42" height="7" rx="2" transform="translate(792 735)" fill="#5c71a8"/>
        <rect id="Rectangle_67" data-name="Rectangle 67" width="168" height="7" rx="2" transform="translate(792 599)" fill="#5c71a8"/>
        <rect id="Rectangle_86" data-name="Rectangle 86" width="168" height="7" rx="2" transform="translate(792 701)" fill="#5c71a8"/>
        <rect id="Rectangle_72" data-name="Rectangle 72" width="42" height="7" rx="2" transform="translate(812 616)" fill="#5c71a8"/>
        <rect id="Rectangle_80" data-name="Rectangle 80" width="42" height="7" rx="2" transform="translate(812 718)" fill="#5c71a8"/>
        <rect id="Rectangle_66" data-name="Rectangle 66" width="42" height="7" rx="2" transform="translate(1047 582)" fill="#5c71a8"/>
        <rect id="Rectangle_90" data-name="Rectangle 90" width="42" height="7" rx="2" transform="translate(1047 684)" fill="#5c71a8"/>
        <rect id="Rectangle_71" data-name="Rectangle 71" width="42" height="7" rx="2" transform="translate(1073 599)" fill="#5c71a8"/>
        <rect id="Rectangle_87" data-name="Rectangle 87" width="42" height="7" rx="2" transform="translate(1073 701)" fill="#5c71a8"/>
        <rect id="Rectangle_76" data-name="Rectangle 76" width="42" height="7" rx="2" transform="translate(1093 616)" fill="#5c71a8"/>
        <rect id="Rectangle_81" data-name="Rectangle 81" width="42" height="7" rx="2" transform="translate(1093 718)" fill="#5c71a8"/>
        <rect id="Rectangle_58" data-name="Rectangle 58" width="42" height="7" rx="2" transform="translate(822 565)" fill="#8093c4"/>
        <rect id="Rectangle_96" data-name="Rectangle 96" width="42" height="7" rx="2" transform="translate(822 667)" fill="#8093c4"/>
        <rect id="Rectangle_63" data-name="Rectangle 63" width="42" height="7" rx="2" transform="translate(842 582)" fill="#8093c4"/>
        <rect id="Rectangle_91" data-name="Rectangle 91" width="42" height="7" rx="2" transform="translate(842 684)" fill="#8093c4"/>
        <rect id="Rectangle_73" data-name="Rectangle 73" width="42" height="7" rx="2" transform="translate(862 616)" fill="#8093c4"/>
        <rect id="Rectangle_82" data-name="Rectangle 82" width="42" height="7" rx="2" transform="translate(862 718)" fill="#8093c4"/>
        <rect id="Rectangle_59" data-name="Rectangle 59" width="42" height="7" rx="2" transform="translate(872 565)" fill="#c49d80"/>
        <rect id="Rectangle_97" data-name="Rectangle 97" width="42" height="7" rx="2" transform="translate(872 667)" fill="#c49d80"/>
        <rect id="Rectangle_62" data-name="Rectangle 62" width="42" height="7" rx="2" transform="translate(892 582)" fill="#c49d80"/>
        <rect id="Rectangle_92" data-name="Rectangle 92" width="42" height="7" rx="2" transform="translate(892 684)" fill="#c49d80"/>
        <rect id="Rectangle_74" data-name="Rectangle 74" width="68" height="7" rx="2" transform="translate(912 616)" fill="#c49d80"/>
        <rect id="Rectangle_83" data-name="Rectangle 83" width="68" height="7" rx="2" transform="translate(912 718)" fill="#c49d80"/>
        <rect id="Rectangle_60" data-name="Rectangle 60" width="42" height="7" rx="2" transform="translate(922 565)" fill="#d3cdc9"/>
        <rect id="Rectangle_98" data-name="Rectangle 98" width="42" height="7" rx="2" transform="translate(922 667)" fill="#d3cdc9"/>
        <rect id="Rectangle_61" data-name="Rectangle 61" width="97" height="7" rx="2" transform="translate(942 582)" fill="#d3cdc9"/>
        <rect id="Rectangle_93" data-name="Rectangle 93" width="97" height="7" rx="2" transform="translate(942 684)" fill="#d3cdc9"/>
        <rect id="Rectangle_70" data-name="Rectangle 70" width="97" height="7" rx="2" transform="translate(968 599)" fill="#7b7a79"/>
        <rect id="Rectangle_88" data-name="Rectangle 88" width="97" height="7" rx="2" transform="translate(968 701)" fill="#7b7a79"/>
        <rect id="Rectangle_75" data-name="Rectangle 75" width="97" height="7" rx="2" transform="translate(988 616)" fill="#d3cdc9"/>
        <rect id="Rectangle_84" data-name="Rectangle 84" width="97" height="7" rx="2" transform="translate(988 718)" fill="#d3cdc9"/>
      </g>
      <circle id="Ellipse_1" data-name="Ellipse 1" cx="3" cy="3" r="3" transform="translate(683 502)" fill="#fa916a"/>
      <circle id="Ellipse_2" data-name="Ellipse 2" cx="3" cy="3" r="3" transform="translate(693 502)" fill="#fac36a"/>
      <circle id="Ellipse_3" data-name="Ellipse 3" cx="3" cy="3" r="3" transform="translate(703 502)" fill="#b5fca0"/>
    </g>
    <g id="Group_7" data-name="Group 7" transform="translate(1 -11)">
      <rect id="Rectangle_151" data-name="Rectangle 151" width="161" height="359" rx="5" transform="translate(1150 486)" fill="#383838"/>
      <rect id="Rectangle_152" data-name="Rectangle 152" width="36" height="12" rx="2" transform="translate(1194 496)" fill="#4e4d4d"/>
      <circle id="Ellipse_11" data-name="Ellipse 11" cx="3" cy="3" r="3" transform="translate(1160 499)" fill="#fa916a"/>
      <circle id="Ellipse_12" data-name="Ellipse 12" cx="3" cy="3" r="3" transform="translate(1170 499)" fill="#fac36a"/>
      <circle id="Ellipse_13" data-name="Ellipse 13" cx="3" cy="3" r="3" transform="translate(1180 499)" fill="#b5fca0"/>
      <rect id="Rectangle_154" data-name="Rectangle 154" width="141" height="297" rx="2" transform="translate(1160 538)" fill="#7b7d89"/>
      <rect id="Rectangle_155" data-name="Rectangle 155" width="121" height="75" rx="2" transform="translate(1170 548)" fill="#b0b0be"/>
      <rect id="Rectangle_161" data-name="Rectangle 161" width="121" height="52" rx="2" transform="translate(1170 730)" fill="#b0b0be"/>
      <rect id="Rectangle_156" data-name="Rectangle 156" width="57" height="37" rx="2" transform="translate(1170 633)" fill="#b0b0be"/>
      <rect id="Rectangle_163" data-name="Rectangle 163" width="57" height="33" rx="2" transform="translate(1170 792)" fill="#b0b0be"/>
      <rect id="Rectangle_157" data-name="Rectangle 157" width="57" height="37" rx="2" transform="translate(1234 633)" fill="#b0b0be"/>
      <rect id="Rectangle_162" data-name="Rectangle 162" width="57" height="33" rx="2" transform="translate(1234 792)" fill="#b0b0be"/>
      <rect id="Rectangle_158" data-name="Rectangle 158" width="79" height="11" rx="2" transform="translate(1170 679)" fill="#b0b0be"/>
      <rect id="Rectangle_159" data-name="Rectangle 159" width="121" height="11" rx="2" transform="translate(1170 694)" fill="#b0b0be"/>
      <rect id="Rectangle_160" data-name="Rectangle 160" width="121" height="11" rx="2" transform="translate(1170 709)" fill="#b0b0be"/>
      <rect id="Rectangle_164" data-name="Rectangle 164" width="141" height="12" rx="6" transform="translate(1160 516)" fill="#4e4d4d"/>
    </g>
  </g>
</svg>
